<?xml version="1.0" encoding="UTF-8"?>
<svg version="1.1" xmlns="http://www.w3.org/2000/svg" width="374" height="268">
<path d="M0 0 C123.42 0 246.84 0 374 0 C374 88.44 374 176.88 374 268 C250.58 268 127.16 268 0 268 C0 179.56 0 91.12 0 0 Z " fill="#F4F3EF" transform="translate(0,0)"/>
<path d="M0 0 C1.23105469 -0.00257812 2.46210938 -0.00515625 3.73046875 -0.0078125 C6.8125 0.125 6.8125 0.125 8.8125 1.125 C8.54617933 4.80649165 8.31862822 6.61702796 5.66796875 9.27734375 C4.78753906 9.86644531 3.90710938 10.45554687 3 11.0625 C1.69095703 11.97322266 1.69095703 11.97322266 0.35546875 12.90234375 C-2.1875 14.125 -2.1875 14.125 -4.51171875 13.81640625 C-5.06472656 13.58824219 -5.61773437 13.36007813 -6.1875 13.125 C-5.02380874 9.63392621 -4.29776462 9.27277237 -1.25 7.4375 C-0.53972656 7.00050781 0.17054688 6.56351562 0.90234375 6.11328125 C2.8125 5.125 2.8125 5.125 4.8125 5.125 C4.8125 4.465 4.8125 3.805 4.8125 3.125 C-8.6105893 5.16001925 -21.4935742 7.79309563 -34.42578125 11.953125 C-38.1875 13.125 -38.1875 13.125 -40.1875 13.125 C-40.23693756 13.73761185 -40.28637512 14.35022369 -40.33731079 14.98139954 C-40.87005812 20.96107584 -41.81272252 26.69459445 -43.1484375 32.54296875 C-43.33967194 33.40328201 -43.53090637 34.26359528 -43.72793579 35.14997864 C-44.33399638 37.8720742 -44.94783914 40.59233486 -45.5625 43.3125 C-46.36445014 46.88877282 -47.16317786 50.46575906 -47.9609375 54.04296875 C-48.24937531 55.33290237 -48.24937531 55.33290237 -48.54364014 56.64889526 C-50.20587655 64.11932506 -51.73271451 71.61148623 -53.1875 79.125 C-51.55735962 78.63604248 -51.55735962 78.63604248 -49.89428711 78.13720703 C-46.29577924 77.15456766 -43.45768414 76.91668126 -39.75 77 C-38.69941406 77.01804687 -37.64882812 77.03609375 -36.56640625 77.0546875 C-35.78136719 77.07789063 -34.99632812 77.10109375 -34.1875 77.125 C-34.05859375 76.3825 -33.9296875 75.64 -33.796875 74.875 C-32.38248165 68.49209668 -29.24671776 63.29885465 -24.1875 59.125 C-22 58.1875 -22 58.1875 -20.1875 58.125 C-18.1875 60.125 -18.1875 60.125 -18.1875 62.25 C-19.87621985 67.10506956 -23.16724782 71.24155948 -26.91796875 74.73828125 C-29.88198657 77.57557147 -31.07827647 79.24809105 -31.59765625 83.41796875 C-31.62267669 86.69564643 -31.56033963 89.86855262 -31.1875 93.125 C-30.8575 93.455 -30.5275 93.785 -30.1875 94.125 C-26.04616417 93.73430794 -22.83306879 93.09666524 -19.1875 91.125 C-19.24550781 90.39796875 -19.30351562 89.6709375 -19.36328125 88.921875 C-19.83153299 78.48655044 -16.70588194 69.32554502 -10.1875 61.125 C-8.1875 59.1875 -8.1875 59.1875 -6.1875 58.125 C-3.9375 58.4375 -3.9375 58.4375 -2.1875 59.125 C-2.45625427 65.57510247 -4.82163178 69.42172276 -9.1875 74.125 C-9.88746094 74.60066406 -10.58742188 75.07632813 -11.30859375 75.56640625 C-13.67571164 77.52998221 -13.91756857 78.82289427 -14.4375 81.8125 C-14.58703125 82.62074219 -14.7365625 83.42898437 -14.890625 84.26171875 C-14.98859375 84.87660156 -15.0865625 85.49148437 -15.1875 86.125 C-14.57261719 85.25875 -13.95773438 84.3925 -13.32421875 83.5 C-12.5083245 82.37462862 -11.69189011 81.24964871 -10.875 80.125 C-10.47087891 79.55265625 -10.06675781 78.9803125 -9.65039062 78.390625 C-8.56849475 76.91291356 -7.38294451 75.51245891 -6.1875 74.125 C-5.1975 74.125 -4.2075 74.125 -3.1875 74.125 C-3.61149451 79.01446855 -6.07917687 81.75206307 -9.25 85.25 C-13.03931119 89.07847106 -13.03931119 89.07847106 -14.1875 94.125 C-11.08130103 94.33678629 -8.86746335 94.4768779 -6.06640625 93.02734375 C-3.44365864 90.37187995 -3.39759017 88.1621204 -2.875 84.5 C-1.57281685 77.55022692 0.75036736 73.04907447 5.8125 68.125 C9.26495824 65.82336118 10.75988713 65.78009678 14.8125 66.125 C15.4725 66.785 16.1325 67.445 16.8125 68.125 C18.76976227 62.64466564 20.32877498 57.15602459 21.6875 51.5 C27.88482672 26.09665156 27.88482672 26.09665156 33.8125 19.125 C35.96484375 18.3984375 35.96484375 18.3984375 37.8125 18.125 C38.93076555 23.57654457 38.57246211 27.11711321 36.8125 32.375 C36.58755859 33.05320801 36.36261719 33.73141602 36.13085938 34.43017578 C35.3782383 36.66927421 34.59858649 38.89744151 33.8125 41.125 C33.39291016 42.32817871 33.39291016 42.32817871 32.96484375 43.55566406 C32.09284991 46.04162855 31.20648055 48.52186228 30.3125 51 C30.04050781 51.75958008 29.76851563 52.51916016 29.48828125 53.30175781 C28.0135416 57.29497891 26.3594565 61.01980586 24.33276367 64.76513672 C21.73982191 69.91849666 20.55561216 74.78690223 19.64453125 80.453125 C19.47878098 81.40459412 19.3130307 82.35606323 19.14225769 83.33636475 C18.62167578 86.34692549 18.12319153 89.36066275 17.625 92.375 C17.28070421 94.37914853 16.93501113 96.38305753 16.58789062 98.38671875 C14.83015113 108.61023465 13.19151366 118.84286114 11.8125 129.125 C12.8025 129.455 13.7925 129.785 14.8125 130.125 C14.1525 131.775 13.4925 133.425 12.8125 135.125 C11.4925 134.795 10.1725 134.465 8.8125 134.125 C8.09094913 119.72070665 10.59479189 105.35772249 13.48046875 91.28125 C13.85190764 88.86908216 13.86827287 86.56184552 13.8125 84.125 C13.10673828 85.17300781 13.10673828 85.17300781 12.38671875 86.2421875 C11.76410156 87.15226562 11.14148438 88.06234375 10.5 89 C9.88511719 89.90492188 9.27023437 90.80984375 8.63671875 91.7421875 C6.8125 94.125 6.8125 94.125 3.8125 96.125 C2.905 95.91875 1.9975 95.7125 1.0625 95.5 C-2.82736611 95.0511693 -4.18886405 96.20358534 -7.390625 98.2578125 C-10.47747528 99.74755329 -12.98790965 98.97017481 -16.1875 98.125 C-16.88875 97.7125 -17.59 97.3 -18.3125 96.875 C-18.93125 96.6275 -19.55 96.38 -20.1875 96.125 C-20.950625 96.599375 -21.71375 97.07375 -22.5 97.5625 C-25.1875 99.125 -25.1875 99.125 -28.75 99.125 C-32.1875 98.125 -32.1875 98.125 -34.625 96.3125 C-37.03892157 91.3881 -36.49683554 86.51259394 -36.1875 81.125 C-37.87564237 81.24100255 -39.56300887 81.36831025 -41.25 81.5 C-42.65958984 81.60441406 -42.65958984 81.60441406 -44.09765625 81.7109375 C-47.62772572 82.18399359 -50.78548802 83.08018733 -54.1875 84.125 C-57.2603159 97.13927912 -59.76048405 110.24240546 -62.16845703 123.39257812 C-62.29469955 124.07816299 -62.42094208 124.76374786 -62.55101013 125.47010803 C-62.89817328 127.35723836 -63.2425073 129.24488851 -63.58666992 131.13256836 C-64.1875 134.125 -64.1875 134.125 -65.1875 137.125 C-64.1975 137.125 -63.2075 137.125 -62.1875 137.125 C-62.6854837 140.85987777 -63.06241756 142.93737635 -65.1875 146.125 C-66.5075 145.795 -67.8275 145.465 -69.1875 145.125 C-69.72091637 136.3111177 -68.0750672 127.97262596 -66.375 119.375 C-66.11051812 117.99755111 -65.84684214 116.61994724 -65.58398438 115.2421875 C-64.08428481 107.43694084 -62.4641516 99.66640615 -60.73168945 91.90917969 C-60.0915861 89.10709641 -60.0915861 89.10709641 -60.1875 86.125 C-70.98651964 91.20125643 -70.98651964 91.20125643 -80.63671875 98.15625 C-81.40435547 98.63578125 -81.40435547 98.63578125 -82.1875 99.125 C-83.1775 98.795 -84.1675 98.465 -85.1875 98.125 C-81.69845189 89.57963082 -70.72243967 85.73570978 -62.875 82.19140625 C-60.1875 81.125 -60.1875 81.125 -58.1875 81.125 C-58.06995361 80.45647003 -57.95240723 79.78794006 -57.83129883 79.09915161 C-56.64800357 72.46799681 -55.31865464 65.88363001 -53.875 59.3046875 C-53.55341919 57.82852463 -53.55341919 57.82852463 -53.2253418 56.32254028 C-52.5478302 53.21463773 -51.86769413 50.10731643 -51.1875 47 C-50.73160112 44.91019327 -50.27587062 42.82034979 -49.8203125 40.73046875 C-47.95772218 32.19192959 -46.08769234 23.65525842 -44.1875 15.125 C-63.63029638 23.23904042 -63.63029638 23.23904042 -81.95922852 33.53295898 C-85.93538674 36.125 -85.93538674 36.125 -89.1875 36.125 C-89.07421875 34.3828125 -89.07421875 34.3828125 -88.1875 32.125 C-86.13797398 30.54560513 -84.22841522 29.27874572 -82 28 C-81.35087646 27.6189209 -80.70175293 27.2378418 -80.03295898 26.84521484 C-69.48744985 20.82792074 -58.13404469 15.44142791 -46.62109375 11.56640625 C-45.48800781 11.09074219 -44.35492188 10.61507812 -43.1875 10.125 C-41.57614654 6.57636841 -41.57614654 6.57636841 -41.1875 3.125 C-40.1975 3.125 -39.2075 3.125 -38.1875 3.125 C-37.6925 5.6 -37.6925 5.6 -37.1875 8.125 C-36.45635986 7.91818604 -35.72521973 7.71137207 -34.97192383 7.49829102 C-31.64849936 6.55940053 -28.3242617 5.62342161 -25 4.6875 C-23.84951172 4.36201172 -22.69902344 4.03652344 -21.51367188 3.70117188 C-20.40185547 3.38857422 -19.29003906 3.07597656 -18.14453125 2.75390625 C-17.12335205 2.46588135 -16.10217285 2.17785645 -15.05004883 1.88110352 C-9.90798057 0.52289581 -5.33370931 -0.01124069 0 0 Z " fill="#565654" transform="translate(260.1875,72.875)"/>
<path d="M0 0 C-0.13917542 1.86260986 -0.13917542 1.86260986 -1 4 C-3.46055603 5.20233154 -3.46055603 5.20233154 -6.77319336 6.19824219 C-8.00794907 6.57833435 -9.24270477 6.95842651 -10.51487732 7.35003662 C-11.87306982 7.74942388 -13.2313953 8.14835918 -14.58984375 8.546875 C-15.97410093 8.96574954 -17.35793151 9.38603629 -18.74134827 9.80767822 C-22.38744883 10.91439749 -26.03946812 12.00021603 -29.69293213 13.08233643 C-32.67706457 13.96998904 -35.6566777 14.872257 -38.63616085 15.77537155 C-42.18177746 16.8498453 -45.72924015 17.91814566 -49.27734375 18.984375 C-49.95701643 19.18869896 -50.63668911 19.39302292 -51.33695793 19.60353851 C-53.25612674 20.17875954 -55.17673633 20.74916693 -57.09741211 21.31933594 C-58.19137802 21.64480408 -59.28534393 21.97027222 -60.41246033 22.30560303 C-63 23 -63 23 -65 23 C-65.03810791 23.57177979 -65.07621582 24.14355957 -65.11547852 24.73266602 C-65.70839401 31.98813623 -67.22187318 38.8733963 -68.9375 45.9375 C-70.85692978 53.92811886 -72.62709259 61.89567981 -74 70 C-73.50145508 69.53021729 -73.00291016 69.06043457 -72.48925781 68.57641602 C-68.921875 65.21484375 -68.921875 65.21484375 -67 64 C-64.765625 64.31640625 -64.765625 64.31640625 -63 65 C-63.35865323 72.41216681 -65.35920537 77.56479472 -69 84 C-65.59687262 82.94124926 -62.98646769 81.99097846 -60 80 C-57.3125 79.875 -57.3125 79.875 -55 80 C-55.66158239 85.56769899 -56.93946573 90.79077036 -58.4375 96.1875 C-60.39716168 103.4098524 -62.00665059 110.57211858 -63 118 C-57.3750207 113.61251614 -53.69379408 109.08867157 -50 103 C-50.32355469 102.40703125 -50.64710937 101.8140625 -50.98046875 101.203125 C-52.7397983 97.4013554 -52.52916786 93.74655982 -51.32421875 89.76953125 C-50.59885048 87.82719441 -49.80458278 85.91088411 -49 84 C-48.01 84 -47.02 84 -46 84 C-46.165 84.825 -46.33 85.65 -46.5 86.5 C-47.05896045 90.41272317 -47.06807187 94.05183173 -47 98 C-44.69 93.71 -42.38 89.42 -40 85 C-39.01 85 -38.02 85 -37 85 C-37 85.99 -37 86.98 -37 88 C-36.01 88 -35.02 88 -34 88 C-34.33 93.61 -34.66 99.22 -35 105 C-33.68 104.34 -32.36 103.68 -31 103 C-30.52230814 100.29711063 -30.26714722 97.84694305 -30.125 95.125 C-29.33578119 85.83891795 -26.93355971 77.2623513 -19.875 70.6875 C-17 69 -17 69 -14.625 69.1875 C-13.820625 69.5896875 -13.820625 69.5896875 -13 70 C-13.14431405 76.92707433 -16.18393982 80.23663194 -21 85 C-21.78375 85.639375 -22.5675 86.27875 -23.375 86.9375 C-26.01774166 90.29174903 -25.75294859 93.80012606 -26 98 C-23.03 93.71 -20.06 89.42 -17 85 C-15.515 85.495 -15.515 85.495 -14 86 C-15.42618704 90.10682132 -17.44080493 93.17064316 -20.0625 96.625 C-23.04745648 100.53776003 -23.04745648 100.53776003 -25 105 C-19.1745028 104.87863547 -16.34160991 103.1949859 -12.1171875 99.25 C-8.85421769 95.78234205 -5.95163793 92.05126302 -3.078125 88.2578125 C-0.96811647 85.96535963 -0.04029677 85.3149857 3 85 C1.68181052 93.7000506 -8.24475812 101.80082911 -14.5703125 107.30859375 C-18.23357099 109.85873993 -20.56503333 110.2334193 -25 110 C-26.485 109.01 -26.485 109.01 -28 108 C-30.06910593 107.97250522 -30.06910593 107.97250522 -32.1875 108.375 C-33.445625 108.58125 -34.70375 108.7875 -36 109 C-39.14958831 105.57653445 -39.56179109 102.55737263 -40 98 C-43.60998774 102.0612362 -46.90640298 106.19927761 -50.0625 110.625 C-55.8291643 118.58015171 -55.8291643 118.58015171 -59 121 C-62.3125 121.3125 -62.3125 121.3125 -65 121 C-69.82832458 111.34335084 -63.97397064 97.46359943 -61 88 C-61.33 87.67 -61.66 87.34 -62 87 C-63.051875 87.495 -63.051875 87.495 -64.125 88 C-67.382056 89.13288904 -69.57697562 89.43698184 -73 89 C-75.375 87 -75.375 87 -77 85 C-78.65866588 89.69094326 -79.86455146 94.42531591 -80.953125 99.2734375 C-81.32599886 100.90893789 -81.69888338 102.54443584 -82.07177734 104.17993164 C-82.36045685 105.45370163 -82.36045685 105.45370163 -82.65496826 106.75320435 C-83.65432631 111.15652004 -84.66680311 115.55681038 -85.6796875 119.95703125 C-85.87934113 120.82450485 -86.07899475 121.69197845 -86.28469849 122.58573914 C-87.93779435 129.75551839 -89.62038727 136.91675367 -91.375 144.0625 C-91.6009082 145.00464355 -91.82681641 145.94678711 -92.05957031 146.91748047 C-93.23066467 151.62380496 -94.6046884 155.73466442 -97 160 C-98.32 160 -99.64 160 -101 160 C-101 155.38 -101 150.76 -101 146 C-99.35 145.67 -97.7 145.34 -96 145 C-95.75636719 143.72511719 -95.51273438 142.45023438 -95.26171875 141.13671875 C-93.80125129 133.83950143 -92.09010057 126.6004026 -90.40353394 119.35290527 C-89.38788224 114.98739129 -88.37751341 110.62065538 -87.3671875 106.25390625 C-87.06278999 104.93868484 -87.06278999 104.93868484 -86.75224304 103.59689331 C-84.9543924 95.82043515 -83.18943085 88.03692817 -81.4375 80.25 C-80.88027376 77.77732901 -80.32298142 75.3046729 -79.765625 72.83203125 C-79.48396484 71.58244629 -79.20230469 70.33286133 -78.91210938 69.04541016 C-78.60807564 67.69693949 -78.30403905 66.34846947 -78 65 C-77.83137451 64.25184021 -77.66274902 63.50368042 -77.48901367 62.73284912 C-76.40343468 57.91810524 -75.31432918 53.10417812 -74.22122192 48.2911377 C-73.86926564 46.73906058 -73.51839052 45.18673784 -73.16867065 43.63415527 C-72.68169553 41.4728959 -72.19089468 39.31253785 -71.69921875 37.15234375 C-71.41908936 35.91476318 -71.13895996 34.67718262 -70.8503418 33.40209961 C-70.04994408 30.19981934 -69.09024791 27.11410062 -68 24 C-72.67903663 25.630893 -77.35627007 27.26682722 -82.03198242 28.90722656 C-83.61907498 29.46326468 -85.20663129 30.01798112 -86.79467773 30.57128906 C-99.13548486 34.71528935 -99.13548486 34.71528935 -111 40 C-111.33 40.99 -111.66 41.98 -112 43 C-113.32 42.67 -114.64 42.34 -116 42 C-116 40.68 -116 39.36 -116 38 C-106.57584257 32.99387015 -97.15469396 29.03022871 -87 25.75 C-85.51428139 25.26217074 -84.02860613 24.77420942 -82.54296875 24.28613281 C-66.79533042 19.1478471 -50.95775936 14.28247304 -35.12750244 9.40583801 C-33.0005062 8.75015604 -30.87399973 8.09290454 -28.74755859 7.4354248 C-25.36612881 6.39069164 -21.98279512 5.35235844 -18.59790039 4.31890869 C-16.72629311 3.7462447 -14.85629101 3.16834299 -12.98632812 2.59033203 C-11.86033203 2.24824707 -10.73433594 1.90616211 -9.57421875 1.55371094 C-8.59026123 1.25237244 -7.60630371 0.95103394 -6.5925293 0.64056396 C-4 0 -4 0 0 0 Z " fill="#545453" transform="translate(178,62)"/>
<path d="M0 0 C-0.33 0.99 -0.66 1.98 -1 3 C-3.46728516 4.06861877 -3.46728516 4.06861877 -6.7890625 5.05297852 C-8.0270459 5.42669083 -9.2650293 5.80040314 -10.54052734 6.18544006 C-11.90200989 6.58329067 -13.26350098 6.98111203 -14.625 7.37890625 C-16.01161955 7.79451605 -17.39784611 8.2114391 -18.78369141 8.62962341 C-22.43650561 9.72912665 -26.09317482 10.8151403 -29.7512207 11.89709473 C-35.60772568 13.63001236 -41.4602139 15.37607504 -47.30877686 17.13560295 C-49.35701628 17.74852474 -51.408048 18.35134515 -53.45947266 18.95350647 C-54.69745605 19.32406662 -55.93543945 19.69462677 -57.2109375 20.07641602 C-58.85521729 20.5624807 -58.85521729 20.5624807 -60.53271484 21.05836487 C-63.15134382 21.73920615 -63.15134382 21.73920615 -64 24 C-62.9776123 23.65243652 -61.95522461 23.30487305 -60.90185547 22.94677734 C-49.06576107 18.94867921 -37.15897771 15.2066772 -25.20849609 11.56591797 C-22.07862576 10.61084906 -18.95144644 9.64727557 -15.82421875 8.68359375 C-13.82307472 8.07239893 -11.82177837 7.46170258 -9.8203125 6.8515625 C-8.89123077 6.56415192 -7.96214905 6.27674133 -7.00491333 5.98062134 C-6.14235931 5.71969696 -5.2798053 5.45877258 -4.39111328 5.18994141 C-3.63710236 4.95933014 -2.88309143 4.72871887 -2.10623169 4.49111938 C0 4 0 4 4 4 C3.72822571 5.90298462 3.72822571 5.90298462 3 8 C0.11052114 9.22827483 -2.58119334 10.15968182 -5.58203125 11.0234375 C-6.90710945 11.42642563 -6.90710945 11.42642563 -8.25895691 11.83755493 C-11.10563735 12.69924857 -13.95865492 13.53737731 -16.8125 14.375 C-18.662573 14.93075059 -20.51218845 15.48802681 -22.36132812 16.046875 C-23.27437714 16.32138489 -24.18742615 16.59589478 -25.12814331 16.87872314 C-26.97458435 17.43418925 -28.8203901 17.99177146 -30.66555786 18.55145264 C-35.33668292 19.95611452 -40.00675291 21.26913867 -44.74365234 22.43457031 C-45.66095627 22.67341949 -46.57826019 22.91226868 -47.52336121 23.15835571 C-49.2589222 23.60796958 -51.00251478 24.02802323 -52.75361633 24.41268921 C-57.24750111 25.59231067 -57.24750111 25.59231067 -60.16113281 29.00422668 C-60.95927818 31.32712945 -61.52417915 33.59186013 -62 36 C-62.38792725 37.48971313 -62.38792725 37.48971313 -62.78369141 39.00952148 C-62.97108887 39.87134033 -63.15848633 40.73315918 -63.3515625 41.62109375 C-63.56296875 42.57564453 -63.774375 43.53019531 -63.9921875 44.51367188 C-64.20101562 45.47853516 -64.40984375 46.44339844 -64.625 47.4375 C-65.05237655 49.39503722 -65.48195256 51.35209595 -65.9140625 53.30859375 C-66.0992041 54.16251709 -66.2843457 55.01644043 -66.47509766 55.89624023 C-67 58 -67 58 -68 60 C-68.9075 60.0825 -69.815 60.165 -70.75 60.25 C-75.27871376 61.29508779 -76.32078363 63.29637737 -79 67 C-80.45151054 63.09952129 -79.57134259 60.0483918 -78.671875 56.06640625 C-78.52220276 55.39262436 -78.37253052 54.71884247 -78.21832275 54.02464294 C-77.73726062 51.86861471 -77.24381488 49.71563907 -76.75 47.5625 C-76.2754558 45.44837891 -75.80333831 43.33372677 -75.33152771 41.21899414 C-75.01720816 39.82758947 -74.69663226 38.4375831 -74.36976624 37.04907227 C-73.59790874 33.76385396 -72.92500956 30.53023268 -72.39233398 27.19335938 C-70.97132824 18.89074982 -70.97132824 18.89074982 -68.37841797 16.51293945 C-66.11858649 15.46524957 -63.99659212 14.90449711 -61.5625 14.375 C-59.68316687 13.86093305 -57.80429782 13.34516788 -55.92578125 12.828125 C-54.85408691 12.55291016 -53.78239258 12.27769531 -52.67822266 11.99414062 C-48.3852464 10.83384597 -44.15608695 9.51648545 -39.91796875 8.171875 C-38.30988266 7.66466 -36.70172788 7.15766274 -35.09350586 6.65087891 C-34.29218231 6.39832336 -33.49085876 6.14576782 -32.66525269 5.88555908 C-31.8682193 5.63457458 -31.07118591 5.38359009 -30.25 5.125 C-29.46432648 4.87739929 -28.67865295 4.62979858 -27.86917114 4.37469482 C-7.25721954 -2.07949562 -7.25721954 -2.07949562 0 0 Z " fill="#D7D6D3" transform="translate(183,67)"/>
<path d="M0 0 C0.639375 0.680625 1.27875 1.36125 1.9375 2.0625 C5.71450256 4.45203223 7.5400184 4.16242373 11.81640625 3.5546875 C14.08954776 2.97725263 15.94893468 2.12552791 18 1 C17.71572583 2.58467728 17.42225182 4.1677057 17.125 5.75 C16.96257812 6.63171875 16.80015625 7.5134375 16.6328125 8.421875 C16.03203736 10.86947744 15.22002883 12.80599857 14 15 C14 14.34 14 13.68 14 13 C12.68 12.34 11.36 11.68 10 11 C8.12935129 14.32458872 7.30165859 17.54127189 6.484375 21.2578125 C6.0663562 23.13762817 6.0663562 23.13762817 5.63989258 25.05541992 C5.49484283 25.71899506 5.34979309 26.38257019 5.2003479 27.06625366 C4.7451168 29.14732335 4.28309625 31.22677822 3.8190918 33.3059082 C3.18445465 36.15123801 2.55182292 38.99699811 1.92138672 41.84326172 C0.56579589 47.9612222 -0.80175147 54.07629479 -2.1875 60.1875 C-2.41276367 61.20537598 -2.63802734 62.22325195 -2.87011719 63.27197266 C-4.04561712 68.44058956 -5.37887237 73.54264818 -6.92578125 78.61328125 C-7.22524658 79.59723877 -7.52471191 80.58119629 -7.83325195 81.5949707 C-9.17852649 84.36799841 -10.14496126 84.98745069 -13 86 C-13.2475 85.21625 -13.495 84.4325 -13.75 83.625 C-15.15389099 80.67682892 -16.00675737 80.0975223 -19 79 C-19 78.34 -19 77.68 -19 77 C-19.99 76.67 -20.98 76.34 -22 76 C-20.515 75.505 -20.515 75.505 -19 75 C-15.56231637 66.57151947 -13.81029221 57.46161273 -11.6875 48.625 C-11.28912557 46.97939554 -10.89068748 45.33380649 -10.4921875 43.68823242 C-7.78179239 32.45399377 -5.19891114 21.19639499 -2.7644043 9.89892578 C-2.54308838 8.87653809 -2.32177246 7.85415039 -2.09375 6.80078125 C-1.90490234 5.91559814 -1.71605469 5.03041504 -1.52148438 4.1184082 C-1 2 -1 2 0 0 Z " fill="#E5E4E1" transform="translate(100,146)"/>
<path d="M0 0 C-0.33 3.63 -0.66 7.26 -1 11 C-3.97 11.66 -6.94 12.32 -10 13 C-10.13051758 13.65782471 -10.26103516 14.31564941 -10.39550781 14.9934082 C-11.01255663 18.09999507 -11.6310427 21.20629281 -12.25 24.3125 C-12.47526367 25.44357178 -12.70052734 26.57464355 -12.93261719 27.73999023 C-14.47271416 35.44319036 -16.05792219 43.13500512 -17.74316406 50.80786133 C-18.76020113 55.52542338 -19.46045088 60.20340836 -20 65 C-19.01 65.33 -18.02 65.66 -17 66 C-17.53069061 69.82097239 -18.49701566 72.06171403 -21 75 C-22.32 74.67 -23.64 74.34 -25 74 C-25 72.68 -25 71.36 -25 70 C-26.32 69.67 -27.64 69.34 -29 69 C-29.21278058 64.53160785 -28.59138085 61.17737474 -27 57 C-27.99 57 -28.98 57 -30 57 C-28.80624188 47.2816404 -27.32195884 37.67319557 -25.45043945 28.06323242 C-25.05821524 26.04040209 -24.67830529 24.01549017 -24.29882812 21.99023438 C-21.58622775 7.73657441 -21.58622775 7.73657441 -19 3 C-15.8203125 1.5625 -15.8203125 1.5625 -12.125 1 C-10.91070312 0.79375 -9.69640625 0.5875 -8.4453125 0.375 C-5 0 -5 0 0 0 Z " fill="#E4E4E1" transform="translate(225,153)"/>
<path d="M0 0 C0.99 0 1.98 0 3 0 C2.835 0.78375 2.67 1.5675 2.5 2.375 C1.9376293 4.88208039 1.9376293 4.88208039 2 7 C2.66 6.34 3.32 5.68 4 5 C5.32 5 6.64 5 8 5 C8.495 6.485 8.495 6.485 9 8 C8.00419922 8.58007812 8.00419922 8.58007812 6.98828125 9.171875 C0.1606247 13.11747493 0.1606247 13.11747493 -6 18 C-6 18.66 -6 19.32 -6 20 C-5.34 20.66 -4.68 21.32 -4 22 C-8.58740464 26.78740048 -12.15281784 29.8742087 -18.9453125 30.15625 C-21.58812569 29.95527561 -23.68048569 29.27199172 -26 28 C-26.495 28.495 -26.495 28.495 -27 29 C-29.4375 29.1875 -29.4375 29.1875 -32 29 C-32.66 28.34 -33.32 27.68 -34 27 C-34 26.01 -34 25.02 -34 24 C-35.65 23.34 -37.3 22.68 -39 22 C-39.49628906 22.78503906 -39.99257812 23.57007813 -40.50390625 24.37890625 C-49.10408706 37.67899612 -49.10408706 37.67899612 -54 41 C-57.4375 41.4375 -57.4375 41.4375 -60 41 C-60.12375 40.071875 -60.12375 40.071875 -60.25 39.125 C-60.81258459 36.81562433 -60.81258459 36.81562433 -63.0625 35.75 C-63.701875 35.5025 -64.34125 35.255 -65 35 C-65 34.34 -65 33.68 -65 33 C-65.99 32.67 -66.98 32.34 -68 32 C-67.175 31.855625 -66.35 31.71125 -65.5 31.5625 C-57.99935189 28.21399638 -53.68132162 20.68329717 -49.38671875 13.953125 C-47.60827076 11.44826867 -45.53469769 9.71464844 -43 8 C-42.34 11.3 -41.68 14.6 -41 18 C-36.46229133 19.28931689 -36.46229133 19.28931689 -33.875 18.4375 C-33.25625 18.293125 -32.6375 18.14875 -32 18 C-31.01 18.66 -30.02 19.32 -29 20 C-24.43307787 19.71003669 -20.99201507 19.30308562 -17 17 C-16.34 17 -15.68 17 -15 17 C-6.4568623 9.28277206 -6.4568623 9.28277206 0 0 Z " fill="#E1E1DE" transform="translate(182,151)"/>
<path d="M0 0 C1.32 0.33 2.64 0.66 4 1 C4.57933817 11.08477562 1.91502105 19.00922395 -1.8984375 28.22265625 C-3.64508553 32.62643904 -5.13836393 37.11847445 -6.65625 41.60546875 C-8 45 -8 45 -10 48.1796875 C-12.87411852 53.04829869 -13.54248262 58.43422185 -14.5 63.9375 C-14.8108252 65.63894165 -14.8108252 65.63894165 -15.12792969 67.37475586 C-15.76840793 70.91381499 -16.38731715 74.456031 -17 78 C-17.19658203 79.12567383 -17.39316406 80.25134766 -17.59570312 81.41113281 C-19.30616286 91.25352402 -20.98248378 101.05886655 -22 111 C-21.01 111.33 -20.02 111.66 -19 112 C-19.33 113.32 -19.66 114.64 -20 116 C-22.475 116.495 -22.475 116.495 -25 117 C-25.84454356 113.62182575 -26.10844919 111.32534757 -25 108 C-25.66 107.67 -26.32 107.34 -27 107 C-26.55291546 95.62567933 -24.80719319 84.57075928 -22.83618164 73.37695312 C-22.31277345 70.37656754 -21.81733067 67.37236215 -21.32226562 64.3671875 C-19.74931034 55.17486421 -18.17778933 47.00923752 -13.5144043 38.81347656 C-10.52045972 33.25129418 -8.74508715 27.16352495 -6.75 21.1875 C-6.3132445 19.90404328 -5.8757469 18.62083886 -5.4375 17.33789062 C-3.48803553 11.58877549 -1.63631865 5.84498569 0 0 Z " fill="#CECECC" transform="translate(299,95)"/>
<path d="M0 0 C0.33 0.99 0.66 1.98 1 3 C3.00016466 4.20882096 3.00016466 4.20882096 5 5 C3.97887652 20.06157132 -2.08106393 37.79850342 -9.6875 50.875 C-13.41337086 57.94928422 -14.21289168 66.16839324 -15.49853516 73.96875 C-16.02473416 77.14951284 -16.57996103 80.32445384 -17.13671875 83.5 C-17.50950777 85.68721173 -17.8806325 87.87470786 -18.25 90.0625 C-18.42539307 91.0719165 -18.60078613 92.08133301 -18.78149414 93.12133789 C-20.76820776 105.1420072 -20.76820776 105.1420072 -19 117 C-19.66 117.99 -20.32 118.98 -21 120 C-22.32 120 -23.64 120 -25 120 C-25.495 117.03 -25.495 117.03 -26 114 C-25.34 114 -24.68 114 -24 114 C-24 112.68 -24 111.36 -24 110 C-24.66 109.67 -25.32 109.34 -26 109 C-26.41565353 100.77194944 -25.0382313 92.89587551 -23.65625 84.8190918 C-23.25535135 82.46887164 -22.86900986 80.11660165 -22.484375 77.76367188 C-18.06132102 51.18979346 -18.06132102 51.18979346 -12.359375 40.82421875 C-9.50792604 34.90008773 -7.72344464 28.51389087 -5.72558594 22.26123047 C-4.95490842 19.85947569 -4.17312528 17.46177245 -3.3828125 15.06640625 C-3.14191895 14.33494385 -2.90102539 13.60348145 -2.65283203 12.84985352 C-2 11 -2 11 -1 9 C-0.77532169 7.46331135 -0.59203195 5.92031946 -0.4375 4.375 C-0.35371094 3.55773437 -0.26992188 2.74046875 -0.18359375 1.8984375 C-0.09271484 0.95871094 -0.09271484 0.95871094 0 0 Z " fill="#E3E2DF" transform="translate(303,97)"/>
<path d="M0 0 C0 0.66 0 1.32 0 2 C-1.3226769 2.82973481 -2.65892673 3.63783976 -4 4.4375 C-4.7425 4.88996094 -5.485 5.34242187 -6.25 5.80859375 C-9.1191842 7.0516352 -11.6558577 7.36810923 -14.74755859 7.67553711 C-19.06239044 8.29708616 -23.16813012 9.74425393 -27.3125 11.0625 C-29.07824836 11.61963504 -30.8451326 12.17318643 -32.61328125 12.72265625 C-33.38454346 12.96765869 -34.15580566 13.21266113 -34.95043945 13.46508789 C-37 14 -37 14 -40 14 C-40.13535156 14.928125 -40.27070313 15.85625 -40.41015625 16.8125 C-41.60186825 24.57601115 -43.0200953 32.26469045 -44.72265625 39.93359375 C-44.87724808 40.63022125 -45.0318399 41.32684875 -45.19111633 42.04458618 C-45.97345787 45.55406966 -46.76780373 49.06048332 -47.57446289 52.56445312 C-49.27204688 60.03151681 -50.5877203 67.34265881 -51 75 C-54.465 75.495 -54.465 75.495 -58 76 C-57.35711546 66.47187541 -55.25683631 57.35911378 -53.1875 48.0625 C-52.82229768 46.40223564 -52.45771639 44.74183456 -52.09375 43.08129883 C-51.38392598 39.84381024 -50.67196018 36.60680536 -49.95849609 33.37011719 C-48.77360949 27.98262911 -47.62775839 22.58721801 -46.5 17.1875 C-46.34039795 16.4251001 -46.1807959 15.6627002 -46.01635742 14.87719727 C-45.67656985 13.25167392 -45.3380763 11.62588011 -45 10 C-14.39659251 -0.3125697 -14.39659251 -0.3125697 0 0 Z " fill="#D6D6D3" transform="translate(265,76)"/>
<path d="M0 0 C0 1.32 0 2.64 0 4 C-3.38280661 6.25520441 -6.19437981 6.9835972 -10.125 8 C-10.79281494 8.17370117 -11.46062988 8.34740234 -12.14868164 8.52636719 C-17.07723372 9.79679072 -22.02003658 10.95158665 -27 12 C-26.94328125 12.90492187 -26.8865625 13.80984375 -26.828125 14.7421875 C-26.8337588 20.36190228 -28.41524502 25.70081681 -29.75 31.125 C-32.51660834 42.69549789 -34.88746219 54.29405517 -37 66 C-34.69 66 -32.38 66 -30 66 C-30 66.33 -30 66.66 -30 67 C-34.29 67 -38.58 67 -43 67 C-42.42048445 60.2320728 -41.46384689 53.74644791 -40.00390625 47.1171875 C-39.81030014 46.21807648 -39.61669403 45.31896545 -39.41722107 44.39260864 C-38.80412154 41.55226418 -38.18329315 38.71367159 -37.5625 35.875 C-37.1499142 33.9649466 -36.737801 32.05479105 -36.32617188 30.14453125 C-35.92750655 28.30199171 -35.52843192 26.45954068 -35.12890625 24.6171875 C-34.94550186 23.7711496 -34.76209747 22.92511169 -34.57313538 22.05343628 C-34.22382394 20.45712687 -33.86820081 18.86218157 -33.50537109 17.26889038 C-33.16699512 15.74973347 -32.853983 14.22471582 -32.56591797 12.69522095 C-31.47420731 7.36698649 -31.47420731 7.36698649 -29.15576172 5.57275391 C-28.05385498 5.27763916 -28.05385498 5.27763916 -26.9296875 4.9765625 C-25.70765625 4.62271484 -25.70765625 4.62271484 -24.4609375 4.26171875 C-23.18089844 3.94654297 -23.18089844 3.94654297 -21.875 3.625 C-21.04484375 3.39167969 -20.2146875 3.15835938 -19.359375 2.91796875 C-16.91476312 2.23976138 -14.46008171 1.61928618 -12 1 C-10.88093262 0.68240723 -10.88093262 0.68240723 -9.73925781 0.35839844 C-6.06648636 -0.66153207 -3.63630943 -1.12464211 0 0 Z " fill="#E4E4E0" transform="translate(256,83)"/>
<path d="M0 0 C-0.27177429 1.90298462 -0.27177429 1.90298462 -1 4 C-3.88947886 5.22827483 -6.58119334 6.15968182 -9.58203125 7.0234375 C-10.46541672 7.29209625 -11.34880219 7.560755 -12.25895691 7.83755493 C-15.10563735 8.69924857 -17.95865492 9.53737731 -20.8125 10.375 C-22.662573 10.93075059 -24.51218845 11.48802681 -26.36132812 12.046875 C-27.27437714 12.32138489 -28.18742615 12.59589478 -29.12814331 12.87872314 C-30.97458435 13.43418925 -32.8203901 13.99177146 -34.66555786 14.55145264 C-39.33668292 15.95611452 -44.00675291 17.26913867 -48.74365234 18.43457031 C-49.66095627 18.67341949 -50.57826019 18.91226868 -51.52336121 19.15835571 C-53.2589222 19.60796958 -55.00251478 20.02802323 -56.75361633 20.41268921 C-61.24750111 21.59231067 -61.24750111 21.59231067 -64.16113281 25.00422668 C-64.95927818 27.32712945 -65.52417915 29.59186013 -66 32 C-66.25861816 32.99314209 -66.51723633 33.98628418 -66.78369141 35.00952148 C-66.97108887 35.87134033 -67.15848633 36.73315918 -67.3515625 37.62109375 C-67.56296875 38.57564453 -67.774375 39.53019531 -67.9921875 40.51367188 C-68.20101562 41.47853516 -68.40984375 42.44339844 -68.625 43.4375 C-69.05237655 45.39503722 -69.48195256 47.35209595 -69.9140625 49.30859375 C-70.0992041 50.16251709 -70.2843457 51.01644043 -70.47509766 51.89624023 C-71 54 -71 54 -72 56 C-73.65 55.67 -75.3 55.34 -77 55 C-76.21661186 50.76925641 -75.42184957 46.54072709 -74.625 42.3125 C-74.40328125 41.11431641 -74.1815625 39.91613281 -73.953125 38.68164062 C-73.62441406 36.94624023 -73.62441406 36.94624023 -73.2890625 35.17578125 C-73.09006348 34.11270752 -72.89106445 33.04963379 -72.68603516 31.9543457 C-72.03237084 29.13940198 -71.10031538 26.66446723 -70 24 C-69.62406934 22.0075675 -69.28020455 20.0081326 -69 18 C-68.67 18.66 -68.34 19.32 -68 20 C-66.9776123 19.65243652 -65.95522461 19.30487305 -64.90185547 18.94677734 C-53.06576107 14.94867921 -41.15897771 11.2066772 -29.20849609 7.56591797 C-26.07862576 6.61084906 -22.95144644 5.64727557 -19.82421875 4.68359375 C-17.82307472 4.07239893 -15.82177837 3.46170258 -13.8203125 2.8515625 C-12.42668991 2.42044662 -12.42668991 2.42044662 -11.00491333 1.98062134 C-10.14235931 1.71969696 -9.2798053 1.45877258 -8.39111328 1.18994141 C-7.63710236 0.95933014 -6.88309143 0.72871887 -6.10623169 0.49111938 C-4 0 -4 0 0 0 Z " fill="#E3E3DF" transform="translate(187,71)"/>
<path d="M0 0 C2.640625 1.8203125 2.640625 1.8203125 5 5 C4.93778088 8.78390479 3.80602927 12.26006531 2.75 15.875 C2.15051998 18.11895892 1.55431904 20.36379573 0.9609375 22.609375 C0.63834961 23.80240234 0.31576172 24.99542969 -0.01660156 26.22460938 C-1.73367738 32.81667999 -3.16462567 39.47225148 -4.625 46.125 C-10.84179334 74.35446475 -10.84179334 74.35446475 -14 80 C-15.65 79.67 -17.3 79.34 -19 79 C-19 78.34 -19 77.68 -19 77 C-19.99 76.67 -20.98 76.34 -22 76 C-20.515 75.505 -20.515 75.505 -19 75 C-15.56231637 66.57151947 -13.81029221 57.46161273 -11.6875 48.625 C-11.28912557 46.97939554 -10.89068748 45.33380649 -10.4921875 43.68823242 C-7.78179239 32.45399377 -5.19891114 21.19639499 -2.7644043 9.89892578 C-2.54308838 8.87653809 -2.32177246 7.85415039 -2.09375 6.80078125 C-1.90490234 5.91559814 -1.71605469 5.03041504 -1.52148438 4.1184082 C-1 2 -1 2 0 0 Z " fill="#D6D6D3" transform="translate(100,146)"/>
<path d="M0 0 C0.33 0 0.66 0 1 0 C0.33742578 7.72422049 -0.76464626 15.34800303 -2 23 C-2.9384375 22.80535156 -3.876875 22.61070312 -4.84375 22.41015625 C-8.75853826 21.90142758 -9.73966528 22.9622908 -13 25 C-16.0625 25.375 -16.0625 25.375 -19 25 C-19.680625 24.46375 -20.36125 23.9275 -21.0625 23.375 C-21.701875 22.92125 -22.34125 22.4675 -23 22 C-25.36777038 22.74563813 -25.36777038 22.74563813 -28 24 C-30.80444182 24.72769947 -33.04122638 24.90607068 -36 25 C-38.5 23.1875 -38.5 23.1875 -40 21 C-40 20.34 -40 19.68 -40 19 C-41.32 18.34 -42.64 17.68 -44 17 C-44 16.67 -44 16.34 -44 16 C-42.58603098 15.49242138 -41.16868271 14.99425075 -39.75 14.5 C-38.96109375 14.2215625 -38.1721875 13.943125 -37.359375 13.65625 C-35 13 -35 13 -31 13 C-30.01 13.66 -29.02 14.32 -28 15 C-23.68617208 14.79126639 -21.00764875 14.60927599 -17.3125 12.375 C-15 11 -15 11 -12.5 11.625 C-11.675 11.74875 -10.85 11.8725 -10 12 C-5.82335875 8.658687 -3.0581682 4.33240495 0 0 Z " fill="#E1E1DE" transform="translate(274,156)"/>
<path d="M0 0 C-0.33 1.65 -0.66 3.3 -1 5 C-7.93 6.485 -7.93 6.485 -15 8 C-18.51412013 25.30143401 -21.83269422 42.63175795 -25 60 C-24.01 60 -23.02 60 -22 60 C-22.61538462 66.52307692 -22.61538462 66.52307692 -24.5625 68.9375 C-25.036875 69.288125 -25.51125 69.63875 -26 70 C-26.99 69.67 -27.98 69.34 -29 69 C-29.21278058 64.53160785 -28.59138085 61.17737474 -27 57 C-27.99 57 -28.98 57 -30 57 C-28.80624188 47.2816404 -27.32195884 37.67319557 -25.45043945 28.06323242 C-25.05821524 26.04040209 -24.67830529 24.01549017 -24.29882812 21.99023438 C-21.58622775 7.73657441 -21.58622775 7.73657441 -19 3 C-15.8203125 1.5625 -15.8203125 1.5625 -12.125 1 C-10.91070312 0.79375 -9.69640625 0.5875 -8.4453125 0.375 C-5.5858099 0.06376162 -2.87052398 -0.08731632 0 0 Z " fill="#D5D4D1" transform="translate(225,153)"/>
<path d="M0 0 C0.33 0.66 0.66 1.32 1 2 C3.01669827 3.13350534 3.01669827 3.13350534 5 4 C5 4.99 5 5.98 5 7 C6.32 7.33 7.64 7.66 9 8 C9 10.97 9 13.94 9 17 C10.32 17.33 11.64 17.66 13 18 C13.33 18.66 13.66 19.32 14 20 C13.690625 20.886875 13.38125 21.77375 13.0625 22.6875 C11.67631752 27.00912774 11.07475158 30.98580537 13.015625 35.2109375 C13.34046875 35.80132812 13.6653125 36.39171875 14 37 C12.75457942 38.75326198 11.50345947 40.50247622 10.25 42.25 C9.20585938 43.71179688 9.20585938 43.71179688 8.140625 45.203125 C6.2253698 47.70553873 4.36133595 49.91646828 2 52 C1.34 52 0.68 52 0 52 C0.23656437 41.22556824 3.06633134 31.2852336 6 21 C6.19996582 20.29697754 6.39993164 19.59395508 6.60595703 18.86962891 C7.06888387 17.24591813 7.53415447 15.62287581 8 14 C4.74156745 15.00856246 1.83478785 16.08746526 -1.1875 17.6875 C-4 19 -4 19 -7 18 C-6.57847656 17.11957031 -6.15695313 16.23914063 -5.72265625 15.33203125 C-5.17480469 14.17058594 -4.62695312 13.00914062 -4.0625 11.8125 C-3.51722656 10.66394531 -2.97195312 9.51539063 -2.41015625 8.33203125 C-1.20539869 5.48533264 -0.45223729 3.03972155 0 0 Z " fill="#D8D7D5" transform="translate(115,128)"/>
<path d="M0 0 C2.86724686 0.57344937 3.8614515 0.8614515 6 3 C5.73445313 3.50789062 5.46890625 4.01578125 5.1953125 4.5390625 C1.95473674 10.85463717 0.01901461 15.95706243 -0.25 23.125 C-0.63266667 28.63266667 -0.63266667 28.63266667 -3.75 31.75 C-6.86193807 32.94689926 -8.72794869 33.54534188 -12 33 C-14.70743251 30.29256749 -14.42640617 28.65928652 -14.5625 24.875 C-14.48922951 20.10718479 -14.18905471 17.36296445 -10.9375 13.8125 C-10.30585938 13.21050781 -9.67421875 12.60851562 -9.0234375 11.98828125 C-5.43136082 8.45861517 -2.80611465 4.16226125 0 0 Z " fill="#D0CFCD" transform="translate(242,135)"/>
<path d="M0 0 C0.33 0.66 0.66 1.32 1 2 C3.02463255 2.65213292 3.02463255 2.65213292 5 3 C5 4.32 5 5.64 5 7 C6.65 7 8.3 7 10 7 C9.60167969 7.42410156 9.20335937 7.84820312 8.79296875 8.28515625 C3.8266444 13.78315523 1.31204079 18.82784708 0.125 26.1875 C-0.52410853 29.68310905 -0.86450784 30.84192581 -3.25 33.625 C-6.41561935 35.20780968 -8.50519616 35.32509803 -12 35 C-12.80078125 33.37109375 -12.80078125 33.37109375 -13 31 C-11.46367002 28.83962882 -9.97146777 26.9961376 -8.1875 25.0625 C-5.04304121 21.59530897 -2.44652579 18.54025148 -1 14 C-4.43502523 15.14500841 -4.92408928 15.93391014 -6.9375 18.8125 C-9.09697298 21.81206721 -11.27322839 24.48298005 -14 27 C-13.21377656 18.98052088 -10.56578642 15.56578642 -5 10 C-2.61680042 6.75620058 -0.61945217 4.02643912 0 0 Z " fill="#CFCECC" transform="translate(258,133)"/>
<path d="M0 0 C-0.66 2.97 -1.32 5.94 -2 9 C-2.495 8.01 -2.495 8.01 -3 7 C-7.14814896 8.4099464 -11.29306479 9.82917804 -15.4375 11.25 C-16.60216797 11.64574219 -17.76683594 12.04148437 -18.96679688 12.44921875 C-28.7951983 15.52108491 -28.7951983 15.52108491 -38 20 C-38.33 20.99 -38.66 21.98 -39 23 C-40.65 22.67 -42.3 22.34 -44 22 C-44 21.34 -44 20.68 -44 20 C-44.66 19.67 -45.32 19.34 -46 19 C-45.34 19 -44.68 19 -44 19 C-43.86803223 18.06861206 -43.86803223 18.06861206 -43.73339844 17.1184082 C-43 15 -43 15 -41.38378906 13.92260742 C-40.68479492 13.65295166 -39.98580078 13.3832959 -39.265625 13.10546875 C-38.47333496 12.79287109 -37.68104492 12.48027344 -36.86474609 12.15820312 C-35.57044678 11.67770508 -35.57044678 11.67770508 -34.25 11.1875 C-32.92669678 10.67799805 -32.92669678 10.67799805 -31.57666016 10.15820312 C-4.82892401 0 -4.82892401 0 0 0 Z " fill="#D6D6D3" transform="translate(110,86)"/>
<path d="M0 0 C0.28571429 7.42857143 0.28571429 7.42857143 -2 11 C-2 9.68 -2 8.36 -2 7 C-5.52206454 8.2674386 -9.04241904 9.53956382 -12.5625 10.8125 C-13.55314453 11.16892578 -14.54378906 11.52535156 -15.56445312 11.89257812 C-18.38229465 12.9129925 -21.19295506 13.95028269 -24 15 C-24.73976074 15.27247559 -25.47952148 15.54495117 -26.24169922 15.82568359 C-28.34072981 16.61471503 -28.34072981 16.61471503 -31 18 C-31.33 18.99 -31.66 19.98 -32 21 C-33.65 20.67 -35.3 20.34 -37 20 C-37.33 18.68 -37.66 17.36 -38 16 C-37.34 16 -36.68 16 -36 16 C-35.91854736 15.38125 -35.83709473 14.7625 -35.75317383 14.125 C-35 12 -35 12 -33.2409668 10.875 C-32.48468994 10.58625 -31.72841309 10.2975 -30.94921875 10 C-29.69129517 9.50790039 -29.69129517 9.50790039 -28.40795898 9.00585938 C-27.51020752 8.67392578 -26.61245605 8.34199219 -25.6875 8 C-24.32830444 7.47889648 -24.32830444 7.47889648 -22.94165039 6.94726562 C-20.30169059 5.94371846 -17.65408505 4.96549854 -15 4 C-14.31615234 3.75121094 -13.63230469 3.50242187 -12.92773438 3.24609375 C-3.87949102 0 -3.87949102 0 0 0 Z " fill="#E2E1DE" transform="translate(107,93)"/>
<path d="M0 0 C-0.33 2.97 -0.66 5.94 -1 9 C-1.495 8.01 -1.495 8.01 -2 7 C-12.74267396 11.65461698 -23.22676008 16.39697967 -33.25 22.46875 C-35.59003181 23.77172226 -37.3866636 24.54769178 -40 25 C-40 23.68 -40 22.36 -40 21 C-38.43945312 19.65966797 -38.43945312 19.65966797 -36.28125 18.4921875 C-35.51425781 18.06292969 -34.74726563 17.63367188 -33.95703125 17.19140625 C-33.14621094 16.75699219 -32.33539063 16.32257813 -31.5 15.875 C-29.90265691 15.00395282 -28.30869014 14.12667521 -26.71875 13.2421875 C-26.00654297 12.8591748 -25.29433594 12.47616211 -24.56054688 12.08154297 C-24.04556641 11.72463379 -23.53058594 11.36772461 -23 11 C-23 10.34 -23 9.68 -23 9 C-19.54418685 7.49414477 -16.08495247 5.99631711 -12.625 4.5 C-11.64015625 4.07074219 -10.6553125 3.64148438 -9.640625 3.19921875 C-8.69960937 2.79316406 -7.75859375 2.38710937 -6.7890625 1.96875 C-5.91975098 1.59169922 -5.05043945 1.21464844 -4.15478516 0.82617188 C-2 0 -2 0 0 0 Z " fill="#D8D8D5" transform="translate(216,88)"/>
<path d="M0 0 C1.10811867 3.38129686 0.8826303 5.84356627 0.2578125 9.32421875 C0.07863281 10.35353516 -0.10054688 11.38285156 -0.28515625 12.44335938 C-0.47980469 13.51392578 -0.67445313 14.58449219 -0.875 15.6875 C-2.13689209 22.78455518 -3.29368876 29.82417831 -4 37 C-3.01 37.33 -2.02 37.66 -1 38 C-1.33 39.32 -1.66 40.64 -2 42 C-4.475 42.495 -4.475 42.495 -7 43 C-7.84454356 39.62182575 -8.10844919 37.32534757 -7 34 C-7.66 33.67 -8.32 33.34 -9 33 C-7.55097879 7.22267537 -7.55097879 7.22267537 0 0 Z " fill="#D4D3D0" transform="translate(281,169)"/>
<path d="M0 0 C0.27748242 1.41154099 0.52093516 2.82979799 0.75 4.25 C0.88921875 5.03890625 1.0284375 5.8278125 1.171875 6.640625 C0.92991507 9.96207488 -0.56810232 10.7991116 -3 13 C-5.02836906 15.74212914 -6.963584 18.53775179 -8.90234375 21.34375 C-11.05661767 24.07169462 -13.14331048 26.02796272 -16 28 C-18.8125 28.25 -18.8125 28.25 -21 28 C-21.33 27.01 -21.66 26.02 -22 25 C-22.99 24.67 -23.98 24.34 -25 24 C-24.175 23.855625 -23.35 23.71125 -22.5 23.5625 C-15.02304215 20.22457239 -10.620329 12.66114629 -6.31640625 5.953125 C-2.304 0 -2.304 0 0 0 Z " fill="#D5D5D2" transform="translate(139,159)"/>
<path d="M0 0 C0.33 0.66 0.66 1.32 1 2 C3.01669827 3.13350534 3.01669827 3.13350534 5 4 C5 4.99 5 5.98 5 7 C6.32 7.33 7.64 7.66 9 8 C9.26171875 10.265625 9.26171875 10.265625 9 13 C7.20703125 14.984375 7.20703125 14.984375 4.8125 16.75 C4.03519531 17.34296875 3.25789063 17.9359375 2.45703125 18.546875 C-0.08570321 20.05068616 -2.09138557 20.60736288 -5 21 C-5 19.68 -5 18.36 -5 17 C-3.25 15.515625 -3.25 15.515625 -1 14.25 C-0.2575 13.82203125 0.485 13.3940625 1.25 12.953125 C1.8275 12.63859375 2.405 12.3240625 3 12 C-0.99357628 12.5705109 -3.57784475 13.92869551 -7 16 C-7.99 16 -8.98 16 -10 16 C-10.33 14.35 -10.66 12.7 -11 11 C-10.37351562 10.62488281 -9.74703125 10.24976562 -9.1015625 9.86328125 C-8.28429687 9.35152344 -7.46703125 8.83976562 -6.625 8.3125 C-5.81289063 7.81363281 -5.00078125 7.31476563 -4.1640625 6.80078125 C-1.66982279 4.72524965 -0.94969305 3.06302098 0 0 Z " fill="#D7D7D4" transform="translate(269,75)"/>
<path d="M0 0 C0.33 0.66 0.66 1.32 1 2 C2.65 1.34 4.3 0.68 6 0 C8.79418965 4.62787661 8.79418965 4.62787661 9 8 C6.1012552 13.71107716 1.73929729 18.71158723 -3 23 C-3.66 23 -4.32 23 -5 23 C-4.53752467 15.80729161 -3.74922933 8.9969173 -2 2 C-1.34 2 -0.68 2 0 2 C0 1.34 0 0.68 0 0 Z " fill="#D6D5D2" transform="translate(120,157)"/>
<path d="M0 0 C0.33 0 0.66 0 1 0 C0.4618629 5.69051363 -0.1400133 11.34865884 -1 17 C-1.66 16.34 -2.32 15.68 -3 15 C-3.66 15.66 -4.32 16.32 -5 17 C-6.99368474 16.96731664 -8.98745088 16.93214114 -10.98046875 16.87109375 C-13.83900156 17.05355329 -15.61183278 18.49168386 -18 20 C-21.1875 20.375 -21.1875 20.375 -24 20 C-24.66 19.01 -25.32 18.02 -26 17 C-24.28133783 15.9615789 -22.54955402 14.94485365 -20.8125 13.9375 C-19.84957031 13.36902344 -18.88664063 12.80054688 -17.89453125 12.21484375 C-14.60323375 10.83347597 -13.36605921 11.17998898 -10 12 C-5.82335875 8.658687 -3.0581682 4.33240495 0 0 Z " fill="#CCCCC9" transform="translate(274,156)"/>
<path d="M0 0 C0.99 0 1.98 0 3 0 C1.98150355 8.95630211 -6.6436356 16.05921795 -13.17578125 21.66015625 C-17.21351008 24.62576865 -19.971075 25.2285875 -25 25 C-25.33 23.68 -25.66 22.36 -26 21 C-20.53868613 18.07883212 -20.53868613 18.07883212 -17.4375 17.625 C-13.95973586 16.73326561 -12.29665864 14.60131743 -10 12 C-9.2471875 11.18015625 -8.494375 10.3603125 -7.71875 9.515625 C-3.40082808 5.08700461 -3.40082808 5.08700461 0 0 Z " fill="#D5D5D2" transform="translate(182,151)"/>
<path d="M0 0 C0 1.65 0 3.3 0 5 C-0.65484375 5.30703857 -1.3096875 5.61407715 -1.984375 5.93041992 C-4.99205595 7.344253 -7.99602412 8.76581275 -11 10.1875 C-12.02996094 10.67025391 -13.05992187 11.15300781 -14.12109375 11.65039062 C-19.44635392 14.17734529 -24.51478702 16.77043641 -29.37890625 20.1105957 C-31 21 -31 21 -34 21 C-33.8359375 19.23046875 -33.8359375 19.23046875 -33 17 C-25.84044275 11.2551319 -9.22924193 0 0 0 Z " fill="#E1E1DE" transform="translate(214,97)"/>
<path d="M0 0 C0.33 0.66 0.66 1.32 1 2 C1.99 2.33 2.98 2.66 4 3 C4.3200954 7.08121639 4.37388366 9.37240957 2.25 12.9375 C0 15 0 15 -4 15 C-5.75527706 17.14763311 -7.21823742 19.17144876 -8.6875 21.5 C-10.10509384 23.68196044 -11.54078195 25.84521149 -13 28 C-13.33 28 -13.66 28 -14 28 C-14.36210411 22.99444317 -14.11815637 19.33380081 -10.8125 15.390625 C-9.0202282 13.71297523 -7.21277908 12.05139482 -5.390625 10.40625 C-2.1403312 7.13471245 -1.14304708 4.40889589 0 0 Z " fill="#CFCFCC" transform="translate(165,133)"/>
<path d="M0 0 C0.33 0 0.66 0 1 0 C1 1.65 1 3.3 1 5 C1.99 5.33 2.98 5.66 4 6 C4.54925528 13.87265905 3.51348599 23.55695184 -1.625 29.8125 C-4 32 -4 32 -5 32 C-4.39969169 24.69808624 -3.29701918 17.57132416 -1.9375 10.375 C-1.75123047 9.37082031 -1.56496094 8.36664063 -1.37304688 7.33203125 C-0.91902767 4.88731245 -0.46129456 2.44335452 0 0 Z " fill="#CCCBC9" transform="translate(281,143)"/>
<path d="M0 0 C0.33 0.66 0.66 1.32 1 2 C2.32 1.67 3.64 1.34 5 1 C4.50976284 5.314087 3.68880986 7.63898767 1 11 C0.87625 11.680625 0.7525 12.36125 0.625 13.0625 C0 15 0 15 -2.25 16.75 C-5.12139874 18.05518125 -6.89097466 18.26648789 -10 18 C-10 13.24533089 -8.38755271 11.39881386 -5.5625 7.875 C-2.5095154 4.11630214 -2.5095154 4.11630214 0 0 Z " fill="#CACAC8" transform="translate(163,150)"/>
<path d="M0 0 C1.63042472 5.25780374 1.22485146 10.68488698 0 16 C-3.15857128 19.02124209 -4.64188441 20 -9 20 C-9.27264574 8.66816143 -9.27264574 8.66816143 -6.15234375 4.578125 C-4.17156874 2.88730471 -2.20578413 1.38175543 0 0 Z " fill="#D8D7D5" transform="translate(241,148)"/>
<path d="M0 0 C0.95904856 3.83619425 0.91892116 5.32431536 0 9 C-0.66 8.67 -1.32 8.34 -2 8 C-4.8093592 9.34718424 -4.8093592 9.34718424 -7.875 11.25 C-8.92429688 11.87390625 -9.97359375 12.4978125 -11.0546875 13.140625 C-13.94087293 14.89966378 -13.94087293 14.89966378 -16.2578125 16.734375 C-18 18 -18 18 -20 18 C-19.69593558 14.75480334 -19.43719323 13.38099448 -16.93359375 11.19921875 C-16.10988281 10.70035156 -15.28617188 10.20148438 -14.4375 9.6875 C-13.61121094 9.17574219 -12.78492188 8.66398438 -11.93359375 8.13671875 C-11.29550781 7.76160156 -10.65742188 7.38648438 -10 7 C-10.33 6.34 -10.66 5.68 -11 5 C-7.37 3.35 -3.74 1.7 0 0 Z " fill="#D7D6D3" transform="translate(200,158)"/>
<path d="M0 0 C0.33 0.99 0.66 1.98 1 3 C0.39414063 3.32871094 -0.21171875 3.65742188 -0.8359375 3.99609375 C-6.81463574 7.39015475 -11.77396511 11.23473257 -16.7734375 15.94921875 C-22.19775596 20.94530154 -22.19775596 20.94530154 -25.75 21.1875 C-26.86375 21.0946875 -26.86375 21.0946875 -28 21 C-25.72252726 18.5992246 -23.279654 16.65810494 -20.625 14.6875 C-17.88076614 12.58506277 -15.49384502 10.60831008 -13.375 7.875 C-9.5309048 3.2216216 -6.16924481 0 0 0 Z " fill="#EFEEEA" transform="translate(190,156)"/>
<path d="M0 0 C0.33 0.99 0.66 1.98 1 3 C3.01508358 3.73323796 3.01508358 3.73323796 5 4 C5.26171875 6.265625 5.26171875 6.265625 5 9 C3.20703125 10.984375 3.20703125 10.984375 0.8125 12.75 C0.03519531 13.34296875 -0.74210937 13.9359375 -1.54296875 14.546875 C-4.08570321 16.05068616 -6.09138557 16.60736288 -9 17 C-9 15.68 -9 14.36 -9 13 C-7.25 11.515625 -7.25 11.515625 -5 10.25 C-4.2575 9.82203125 -3.515 9.3940625 -2.75 8.953125 C-2.1725 8.63859375 -1.595 8.3240625 -1 8 C-1.66 7.34 -2.32 6.68 -3 6 C-2.34 5.34 -1.68 4.68 -1 4 C-0.3574765 1.93125966 -0.3574765 1.93125966 0 0 Z " fill="#E2E2DE" transform="translate(273,79)"/>
<path d="M0 0 C0 0.66 0 1.32 0 2 C-4.01958384 3.53152491 -8.03978449 5.06141641 -12.06054688 6.58984375 C-13.42627455 7.10925957 -14.79183721 7.62910952 -16.15722656 8.14941406 C-18.12781501 8.90025141 -20.09900552 9.64948899 -22.0703125 10.3984375 C-23.84559326 11.07398682 -23.84559326 11.07398682 -25.65673828 11.76318359 C-28.75254482 12.90845568 -31.86215953 13.976337 -35 15 C-35 14.01 -35 13.02 -35 12 C-5.56768559 0 -5.56768559 0 0 0 Z " fill="#F2F1ED" transform="translate(107,93)"/>
<path d="M0 0 C1.98 0 3.96 0 6 0 C7 2 7 2 6.43359375 4.34765625 C5.44189363 7.0505252 4.47494689 9.52435169 3 12 C-0.25 13.125 -0.25 13.125 -3 13 C-2.45144652 8.428721 -1.58255197 4.32564205 0 0 Z " fill="#D1D1CE" transform="translate(122,146)"/>
<path d="M0 0 C0.33 0.99 0.66 1.98 1 3 C1.99 3 2.98 3 4 3 C5.01441735 6.12128415 5.40042468 8.16627996 3.953125 11.1796875 C2.69294439 13.16907375 1.39266782 15.1013456 0 17 C-0.33 16.01 -0.66 15.02 -1 14 C-2.32 14.33 -3.64 14.66 -5 15 C-4.60610782 12.16397629 -4.27283051 10.35240608 -2.5 8.0625 C-0.59238846 5.43953413 -0.36172857 3.18321138 0 0 Z " fill="#E1E1DE" transform="translate(169,137)"/>
<path d="M0 0 C0.33 0.66 0.66 1.32 1 2 C0.67 2.99 0.34 3.98 0 5 C1.32 4.67 2.64 4.34 4 4 C3.67 5.65 3.34 7.3 3 9 C2.67 8.01 2.34 7.02 2 6 C-1.43502523 7.14500841 -1.92408928 7.93391014 -3.9375 10.8125 C-6.09697298 13.81206721 -8.27322839 16.48298005 -11 19 C-10.22611232 11.10634563 -7.67998288 7.38870171 -2 2 C-1.34 1.34 -0.68 0.68 0 0 Z " fill="#C8C7C5" transform="translate(255,141)"/>
<path d="M0 0 C0 1.32 0 2.64 0 4 C-0.57234375 4.22429687 -1.1446875 4.44859375 -1.734375 4.6796875 C-4.64866633 6.3780159 -6.19907745 8.45880069 -8.25 11.125 C-8.95640625 12.03507813 -9.6628125 12.94515625 -10.390625 13.8828125 C-10.92171875 14.58148438 -11.4528125 15.28015625 -12 16 C-12.94547564 13.45359629 -13.12400774 12.3267236 -12.14453125 9.74609375 C-11.70496094 8.98425781 -11.26539063 8.22242188 -10.8125 7.4375 C-10.38582031 6.67308594 -9.95914062 5.90867188 -9.51953125 5.12109375 C-6.65749698 1.12601764 -4.98476878 0 0 0 Z " fill="#E4E3DF" transform="translate(274,143)"/>
<path d="M0 0 C0.55171875 0.38929688 1.1034375 0.77859375 1.671875 1.1796875 C1.671875 1.8396875 1.671875 2.4996875 1.671875 3.1796875 C2.331875 3.5096875 2.991875 3.8396875 3.671875 4.1796875 C-4.94262442 9.07727093 -4.94262442 9.07727093 -10.328125 8.1796875 C-10.988125 7.1896875 -11.648125 6.1996875 -12.328125 5.1796875 C-10.75765757 4.11872287 -9.17117983 3.08142515 -7.578125 2.0546875 C-6.69640625 1.47460938 -5.8146875 0.89453125 -4.90625 0.296875 C-2.328125 -0.8203125 -2.328125 -0.8203125 0 0 Z " fill="#D6D5D2" transform="translate(260.328125,167.8203125)"/>
<path d="M0 0 C1.09658936 3.28976808 0.79953138 4.71303767 0 8 C-0.33 7.34 -0.66 6.68 -1 6 C-1.68707031 6.51691406 -2.37414062 7.03382813 -3.08203125 7.56640625 C-3.98308594 8.22511719 -4.88414062 8.88382813 -5.8125 9.5625 C-6.70582031 10.22378906 -7.59914062 10.88507813 -8.51953125 11.56640625 C-9.33808594 12.03949219 -10.15664062 12.51257813 -11 13 C-11.99 12.67 -12.98 12.34 -14 12 C-12.50819618 8.16030039 -10.37986478 6.57720591 -7 4.3125 C-6.113125 3.71050781 -5.22625 3.10851562 -4.3125 2.48828125 C-2 1 -2 1 0 0 Z " fill="#E1E0DD" transform="translate(198,168)"/>
<path d="M0 0 C1.21065165 3.63195496 0.62784815 5.06531629 -0.4375 8.6875 C-0.72496094 9.68136719 -1.01242188 10.67523438 -1.30859375 11.69921875 C-1.53675781 12.45847656 -1.76492187 13.21773437 -2 14 C-2.33 13.34 -2.66 12.68 -3 12 C-5.01669827 10.86649466 -5.01669827 10.86649466 -7 10 C-7 9.01 -7 8.02 -7 7 C-8.32 6.34 -9.64 5.68 -11 5 C-11 4.67 -11 4.34 -11 4 C-10.28972656 3.79503906 -9.57945313 3.59007812 -8.84765625 3.37890625 C-7.92855469 3.10949219 -7.00945312 2.84007812 -6.0625 2.5625 C-4.68771484 2.16224609 -4.68771484 2.16224609 -3.28515625 1.75390625 C-1.0597507 1.20973949 -1.0597507 1.20973949 0 0 Z " fill="#CCCCCA" transform="translate(117,147)"/>
<path d="M0 0 C1.32 0.33 2.64 0.66 4 1 C4 4.3 4 7.6 4 11 C3.34 11 2.68 11 2 11 C1.34 12.32 0.68 13.64 0 15 C-0.66 15 -1.32 15 -2 15 C-2.33 15.66 -2.66 16.32 -3 17 C-2.54775239 11.08507728 -1.8417395 5.64800112 0 0 Z " fill="#D3D3D0" transform="translate(299,95)"/>
<path d="M0 0 C2.46800047 1.15173355 4.04783565 2.04783565 6 4 C2.93292923 6.33681582 0.71739911 7.88521614 -3.125 8.5 C-6.62388303 7.8914986 -7.795151 6.71366031 -10 4 C-9.36191406 3.79503906 -8.72382813 3.59007812 -8.06640625 3.37890625 C-7.24011719 3.10949219 -6.41382813 2.84007812 -5.5625 2.5625 C-4.73878906 2.29566406 -3.91507813 2.02882812 -3.06640625 1.75390625 C-1.03780412 1.17844506 -1.03780412 1.17844506 0 0 Z " fill="#DADAD7" transform="translate(240,168)"/>
<path d="M0 0 C0.66 0 1.32 0 2 0 C2 1.32 2 2.64 2 4 C2.66 4 3.32 4 4 4 C4.05391993 5.79133978 4.09275571 7.58313899 4.125 9.375 C4.14820313 10.37273437 4.17140625 11.37046875 4.1953125 12.3984375 C4 15 4 15 2 17 C1.01 17 0.02 17 -1 17 C-1.18451025 5.47835991 -1.18451025 5.47835991 0 0 Z " fill="#B5B5B3" transform="translate(144,150)"/>
<path d="M0 0 C0.66 0.33 1.32 0.66 2 1 C0.403238 4.6204657 -1.8150509 7.44429757 -4.3125 10.5 C-5.45138672 11.90765625 -5.45138672 11.90765625 -6.61328125 13.34375 C-8.90630189 15.8957206 -11.26106609 17.94458765 -14 20 C-14.66 19.67 -15.32 19.34 -16 19 C-15.59910156 18.55011719 -15.19820312 18.10023438 -14.78515625 17.63671875 C-9.70053718 11.88337427 -4.83478919 5.964003 0 0 Z " fill="#E5E4E0" transform="translate(180,150)"/>
<path d="M0 0 C0.66 0 1.32 0 2 0 C1.47731534 2.76276177 0.89130413 5.3260876 0 8 C1.32 8 2.64 8 4 8 C4.33 7.01 4.66 6.02 5 5 C5.33 5 5.66 5 6 5 C6.3125 7.25 6.3125 7.25 6 10 C3.6875 12.3125 3.6875 12.3125 1 14 C0.01 14 -0.98 14 -2 14 C-1.85970581 11.8537974 -1.71261836 9.70803782 -1.5625 7.5625 C-1.48128906 6.36753906 -1.40007812 5.17257813 -1.31640625 3.94140625 C-1 1 -1 1 0 0 Z " fill="#E5E5E1" transform="translate(234,154)"/>
<path d="M0 0 C-5.37390489 2.45973365 -10.73277455 4.16593342 -16.4375 5.6875 C-17.26443359 5.91244141 -18.09136719 6.13738281 -18.94335938 6.36914062 C-20.96101454 6.91728971 -22.98033943 7.45928664 -25 8 C-25 7.01 -25 6.02 -25 5 C-21.58805052 3.96292107 -18.16984355 2.94821392 -14.75 1.9375 C-13.78191406 1.64294922 -12.81382812 1.34839844 -11.81640625 1.04492188 C-10.88183594 0.77099609 -9.94726562 0.49707031 -8.984375 0.21484375 C-8.12553711 -0.04176025 -7.26669922 -0.29836426 -6.38183594 -0.56274414 C-3.86951531 -1.02395429 -2.3940048 -0.81657856 0 0 Z " fill="#F1F0ED" transform="translate(256,83)"/>
<path d="M0 0 C0.33 1.32 0.66 2.64 1 4 C2.32 4 3.64 4 5 4 C4.38461538 9.53846154 4.38461538 9.53846154 2.4375 11.875 C1.7259375 12.431875 1.7259375 12.431875 1 13 C0.01 12.67 -0.98 12.34 -2 12 C-2.21278058 7.53160785 -1.59138085 4.17737474 0 0 Z " fill="#CCCCCA" transform="translate(198,210)"/>
<path d="M0 0 C0.66 0 1.32 0 2 0 C1.50453423 4.68129726 -0.39286179 7.17915489 -3.375 10.75 C-4.16648438 11.71421875 -4.95796875 12.6784375 -5.7734375 13.671875 C-8 16 -8 16 -11 17 C-10.41315734 13.4392925 -9.07231059 11.66986676 -6.625 9.0625 C-3.9936217 6.18358919 -1.9932943 3.35712725 0 0 Z " fill="#F1F0EC" transform="translate(135,172)"/>
<path d="M0 0 C0.9075 0.185625 1.815 0.37125 2.75 0.5625 C5.85025954 1.20073567 5.85025954 1.20073567 8.1875 0.375 C9.0846875 0.189375 9.0846875 0.189375 10 0 C11.75 1.4375 11.75 1.4375 13 3 C11.8125 4.5625 11.8125 4.5625 10 6 C7.32520673 5.73904456 5.39904859 5.1995243 3 4 C1.32345271 4.27942455 -0.34608154 4.60828247 -2 5 C-1.34 3.35 -0.68 1.7 0 0 Z " fill="#CFCFCC" transform="translate(140,169)"/>
<path d="M0 0 C2.86724686 0.57344937 3.8614515 0.8614515 6 3 C2.88983545 6.28788824 -0.01618925 8.83735988 -4 11 C-3.52269162 9.5410574 -3.04308958 8.08286504 -2.5625 6.625 C-2.29566406 5.81289062 -2.02882812 5.00078125 -1.75390625 4.1640625 C-1 2 -1 2 0 0 Z " fill="#D4D3D1" transform="translate(242,135)"/>
<path d="M0 0 C0.33 0.99 0.66 1.98 1 3 C2.32 3.33 3.64 3.66 5 4 C5 6.97 5 9.94 5 13 C5.99 13.33 6.98 13.66 8 14 C6.68 14 5.36 14 4 14 C4 12.68 4 11.36 4 10 C2.02 10.33 0.04 10.66 -2 11 C-1.34 7.37 -0.68 3.74 0 0 Z " fill="#DEDDDA" transform="translate(119,132)"/>
<path d="M0 0 C0.33 0 0.66 0 1 0 C1.33 2.97 1.66 5.94 2 9 C-0.8125 9.625 -0.8125 9.625 -4 10 C-4.99 9.34 -5.98 8.68 -7 8 C-5.85760183 6.66372225 -4.71098945 5.33104612 -3.5625 4 C-2.92441406 3.2575 -2.28632813 2.515 -1.62890625 1.75 C-1.09136719 1.1725 -0.55382812 0.595 0 0 Z " fill="#C1C1BF" transform="translate(138,159)"/>
<path d="M0 0 C0.33 0.66 0.66 1.32 1 2 C1.99 2.33 2.98 2.66 4 3 C4.22223194 5.74086056 4.34781139 7.43963721 2.875 9.8125 C0.22464043 11.49106106 -1.93246424 11.20450238 -5 11 C-3.68 9.68 -2.36 8.36 -1 7 C-1.33 6.34 -1.66 5.68 -2 5 C-1.0625 2.375 -1.0625 2.375 0 0 Z " fill="#D2D2CF" transform="translate(269,75)"/>
<path d="M0 0 C-2.73786561 1.70781734 -5.4919592 3.38749473 -8.25 5.0625 C-9.41595703 5.79049805 -9.41595703 5.79049805 -10.60546875 6.53320312 C-11.35957031 6.98759766 -12.11367187 7.44199219 -12.890625 7.91015625 C-13.58188477 8.33433838 -14.27314453 8.75852051 -14.98535156 9.19555664 C-17.42003895 10.16772035 -18.57555507 9.87707861 -21 9 C-18.26213439 7.29218266 -15.5080408 5.61250527 -12.75 3.9375 C-11.97269531 3.45216797 -11.19539062 2.96683594 -10.39453125 2.46679688 C-9.26337891 1.78520508 -9.26337891 1.78520508 -8.109375 1.08984375 C-7.07248535 0.45357056 -7.07248535 0.45357056 -6.01464844 -0.19555664 C-3.57996105 -1.16772035 -2.42444493 -0.87707861 0 0 Z " fill="#E7E6E3" transform="translate(195,99)"/>
<path d="M0 0 C0.33 1.32 0.66 2.64 1 4 C2.65 4 4.3 4 6 4 C5.60167969 4.44730469 5.20335937 4.89460937 4.79296875 5.35546875 C2.35411675 8.13848965 0.14996141 10.74827906 -1.75 13.9375 C-2.1625 14.618125 -2.575 15.29875 -3 16 C-3.66 16 -4.32 16 -5 16 C-3.94124926 12.59687262 -2.99097846 9.98646769 -1 7 C-0.60612212 4.67612053 -0.26513915 2.34206251 0 0 Z " fill="#D9D8D6" transform="translate(262,136)"/>
<path d="M0 0 C0.66 1.32 1.32 2.64 2 4 C-0.35968744 6.09749995 -1.54616994 6.96905704 -4.75 7.1875 C-5.86375 7.0946875 -5.86375 7.0946875 -7 7 C-7 5.68 -7 4.36 -7 3 C-6.21625 2.87625 -5.4325 2.7525 -4.625 2.625 C-1.85942178 2.20882007 -1.85942178 2.20882007 0 0 Z " fill="#C6C6C4" transform="translate(160,161)"/>
<path d="M0 0 C1.53445094 3.06890187 0.54984289 5.70094266 0 9 C-0.66 8.34 -1.32 7.68 -2 7 C-2.66 7.66 -3.32 8.32 -4 9 C-4.99 9 -5.98 9 -7 9 C-7 7.68 -7 6.36 -7 5 C-6.401875 4.731875 -5.80375 4.46375 -5.1875 4.1875 C-3.02775192 3.01506533 -1.64209744 1.80630718 0 0 Z " fill="#C6C6C4" transform="translate(273,164)"/>
<path d="M0 0 C1.66666667 0 3.33333333 0 5 0 C3.77782954 4.04256383 2.37245704 7.49288959 0 11 C-0.33 11 -0.66 11 -1 11 C-1.0270043 9.54176788 -1.04639787 8.08339325 -1.0625 6.625 C-1.07410156 5.81289062 -1.08570313 5.00078125 -1.09765625 4.1640625 C-1 2 -1 2 0 0 Z " fill="#CECECB" transform="translate(131,150)"/>
<path d="M0 0 C0.33 0.66 0.66 1.32 1 2 C-0.21484375 4.8203125 -0.21484375 4.8203125 -1.9375 8.125 C-2.50339844 9.22070312 -3.06929688 10.31640625 -3.65234375 11.4453125 C-4.09707031 12.28835937 -4.54179688 13.13140625 -5 14 C-5.33 14 -5.66 14 -6 14 C-6.48792229 10.74718472 -6.40014561 8.65286916 -4.6640625 5.8203125 C-3.15782398 3.8332091 -1.61782175 1.8970886 0 0 Z " fill="#C6C5C3" transform="translate(110,131)"/>
<path d="M0 0 C0.33 0.66 0.66 1.32 1 2 C2.98 1.34 4.96 0.68 7 0 C6.34 1.98 5.68 3.96 5 6 C3.02 6.33 1.04 6.66 -1 7 C-0.67 4.69 -0.34 2.38 0 0 Z " fill="#C7C7C4" transform="translate(120,152)"/>
<path d="M0 0 C0.33 0.66 0.66 1.32 1 2 C-0.12029017 3.48273699 -1.24638618 4.96108886 -2.375 6.4375 C-3.31472656 7.67306641 -3.31472656 7.67306641 -4.2734375 8.93359375 C-6 11 -6 11 -8 12 C-7.55396127 6.94489444 -5.35299176 4.59833262 -2 1 C-1.34 0.67 -0.68 0.34 0 0 Z " fill="#D7D7D4" transform="translate(163,153)"/>
<path d="M0 0 C0.33 0.66 0.66 1.32 1 2 C0.0625 4.125 0.0625 4.125 -1 6 C-2.65 6 -4.3 6 -6 6 C-6.33 5.01 -6.66 4.02 -7 3 C-7.99 2.67 -8.98 2.34 -10 2 C-6.94152152 1.45627049 -4.11227195 1 -1 1 C-0.67 0.67 -0.34 0.34 0 0 Z " fill="#CDCDCA" transform="translate(124,181)"/>
<path d="M0 0 C0 2.97 0 5.94 0 9 C-1.98 8.01 -3.96 7.02 -6 6 C-6 5.01 -6 4.02 -6 3 C-1.66666667 0 -1.66666667 0 0 0 Z " fill="#DAD9D6" transform="translate(272,170)"/>
<path d="M0 0 C0.33 0.66 0.66 1.32 1 2 C1.66 2 2.32 2 3 2 C2.34 4.97 1.68 7.94 1 11 C-0.32 10.67 -1.64 10.34 -3 10 C-2.505 9.0409375 -2.505 9.0409375 -2 8.0625 C-0.92728775 6.23205433 -0.92728775 6.23205433 -1 5 C-1 2 -1 2 0 0 Z " fill="#C5C5C3" transform="translate(256,150)"/>
<path d="M0 0 C1.32 0 2.64 0 4 0 C4.33 0.99 4.66 1.98 5 3 C0.05 5.475 0.05 5.475 -5 8 C-2.16666667 2.33333333 -2.16666667 2.33333333 0 0 Z " fill="#DDDDDA" transform="translate(186,156)"/>
<path d="M0 0 C1 2 1 2 0.4375 5 C-1 8 -1 8 -4.125 9.375 C-5.07375 9.58125 -6.0225 9.7875 -7 10 C-6.40606618 8.70359622 -5.79942011 7.41301161 -5.1875 6.125 C-4.85105469 5.40570313 -4.51460938 4.68640625 -4.16796875 3.9453125 C-3 2 -3 2 0 0 Z " fill="#C9C9C7" transform="translate(118,136)"/>
<path d="M0 0 C0.33 0.66 0.66 1.32 1 2 C1.99 2.33 2.98 2.66 4 3 C4.1875 5.375 4.1875 5.375 4 8 C3.01 8.66 2.02 9.32 1 10 C1 9.01 1 8.02 1 7 C0.34 7 -0.32 7 -1 7 C-0.67 4.69 -0.34 2.38 0 0 Z " fill="#D1D1CE" transform="translate(115,128)"/>
<path d="M0 0 C0.33 0 0.66 0 1 0 C1 1.65 1 3.3 1 5 C1.99 5.33 2.98 5.66 4 6 C4 7.65 4 9.3 4 11 C3.34 11 2.68 11 2 11 C2 10.34 2 9.68 2 9 C1.01 9.33 0.02 9.66 -1 10 C-0.67 6.7 -0.34 3.4 0 0 Z " fill="#C3C3C1" transform="translate(281,143)"/>
<path d="M0 0 C0.66 0 1.32 0 2 0 C0.6062718 4.43458973 -1.60582235 6.87378374 -5 10 C-4.49890042 5.61537866 -3.01704885 3.1999003 0 0 Z " fill="#E7E6E3" transform="translate(131,168)"/>
<path d="M0 0 C0.33 0 0.66 0 1 0 C0.58846263 4.97093824 0.20399168 9.44508386 -2 14 C-2.33 14 -2.66 14 -3 14 C-3.40652968 8.57960425 -2.03993514 4.92984325 0 0 Z " fill="#EDECE8" transform="translate(125,157)"/>
<path d="M0 0 C0.66 0 1.32 0 2 0 C2 1.32 2 2.64 2 4 C2.66 4.33 3.32 4.66 4 5 C3.34 6.65 2.68 8.3 2 10 C1.34 10 0.68 10 0 10 C0 6.7 0 3.4 0 0 Z " fill="#D1D1CE" transform="translate(144,150)"/>
<path d="M0 0 C0 3.58912412 -0.66436554 4.10857029 -3 6.6875 C-3.556875 7.31011719 -4.11375 7.93273437 -4.6875 8.57421875 C-5.120625 9.04472656 -5.55375 9.51523438 -6 10 C-6.33 8.68 -6.66 7.36 -7 6 C-4.69 4.02 -2.38 2.04 0 0 Z " fill="#DBDAD7" transform="translate(256,153)"/>
<path d="M0 0 C0.33 1.32 0.66 2.64 1 4 C0.4225 4.2475 -0.155 4.495 -0.75 4.75 C-3.3002997 6.16683317 -5.01785701 7.87627537 -7 10 C-5.369 3.243 -5.369 3.243 -2.4375 1.3125 C-1.633125 0.879375 -0.82875 0.44625 0 0 Z " fill="#C9C8C6" transform="translate(273,143)"/>
<path d="M0 0 C1.1875 1.6875 1.1875 1.6875 1.1875 3.6875 C-1.6875 3.375 -1.6875 3.375 -4.8125 2.6875 C-5.4725 1.6975 -6.1325 0.7075 -6.8125 -0.3125 C-2.28877737 -1.65739051 -2.28877737 -1.65739051 0 0 Z " fill="#CECECB" transform="translate(236.8125,172.3125)"/>
<path d="M0 0 C-0.66 1.32 -1.32 2.64 -2 4 C-3.65 3.67 -5.3 3.34 -7 3 C-7 2.01 -7 1.02 -7 0 C-4.3333581 -1.33332095 -2.83319697 -0.67102033 0 0 Z " fill="#C6C6C4" transform="translate(163,172)"/>
<path d="M0 0 C-0.5625 1.9375 -0.5625 1.9375 -2 4 C-5.625 4.75 -5.625 4.75 -9 5 C-4.22727273 0 -4.22727273 0 0 0 Z " fill="#F1F0EC" transform="translate(264,172)"/>
<path d="M0 0 C0 3.60573896 -0.81707462 4.41336566 -3 7.1875 C-3.556875 7.90292969 -4.11375 8.61835938 -4.6875 9.35546875 C-5.120625 9.89816406 -5.55375 10.44085938 -6 11 C-6.99 10.67 -7.98 10.34 -9 10 C-6.03 6.7 -3.06 3.4 0 0 Z " fill="#B7B7B4" transform="translate(270,154)"/>
<path d="M0 0 C0.99 0.33 1.98 0.66 3 1 C3 2.32 3 3.64 3 5 C1.35 4.67 -0.3 4.34 -2 4 C-2 3.01 -2 2.02 -2 1 C-1.34 0.67 -0.68 0.34 0 0 Z " fill="#C5C4C3" transform="translate(251,171)"/>
<path d="M0 0 C0.66 0.33 1.32 0.66 2 1 C1.525625 1.5775 1.05125 2.155 0.5625 2.75 C-0.9484867 4.92582084 -1.54036151 6.42602448 -2 9 C-2.66 9 -3.32 9 -4 9 C-4.25 6.1875 -4.25 6.1875 -4 3 C-2 1.125 -2 1.125 0 0 Z " fill="#D5D4D2" transform="translate(165,156)"/>
<path d="M0 0 C0.33 0 0.66 0 1 0 C1 2.97 1 5.94 1 9 C-0.98 9.99 -0.98 9.99 -3 11 C-2.01 7.37 -1.02 3.74 0 0 Z " fill="#C2C2BF" transform="translate(295,108)"/>
<path d="M0 0 C0.7425 0.0825 1.485 0.165 2.25 0.25 C1.125 2.25 1.125 2.25 -0.75 4.25 C-3.9375 4.5 -3.9375 4.5 -6.75 4.25 C-3.42692308 0.31153846 -3.42692308 0.31153846 0 0 Z " fill="#CBCBC9" transform="translate(270.75,81.75)"/>
<path d="M0 0 C0 0.99 0 1.98 0 3 C-3.22791555 5.1519437 -4.28400809 5.20086443 -8 5 C-3.22727273 0 -3.22727273 0 0 0 Z " fill="#F2F1ED" transform="translate(247,172)"/>
<path d="M0 0 C0.99 0.33 1.98 0.66 3 1 C0.69 2.65 -1.62 4.3 -4 6 C-4.66 5.34 -5.32 4.68 -6 4 C-3.1875 1.9375 -3.1875 1.9375 0 0 Z " fill="#EBEAE6" transform="translate(188,164)"/>
<path d="M0 0 C0.66 0.33 1.32 0.66 2 1 C0.38405168 3.04119788 -1.2856382 5.04072937 -3 7 C-3.66 7 -4.32 7 -5 7 C-3.75023244 3.34683329 -3.32901247 2.21934164 0 0 Z " fill="#E8E7E4" transform="translate(168,156)"/>
<path d="M0 0 C0 0.66 0 1.32 0 2 C-2.97 3.32 -5.94 4.64 -9 6 C-9 5.01 -9 4.02 -9 3 C-2.25 0 -2.25 0 0 0 Z " fill="#E5E4E0" transform="translate(76,98)"/>
<path d="M0 0 C1.32 0.33 2.64 0.66 4 1 C4 2.65 4 4.3 4 6 C3.01 6 2.02 6 1 6 C0.67 4.02 0.34 2.04 0 0 Z " fill="#C4C4C2" transform="translate(228,153)"/>
<path d="M0 0 C1.65 0 3.3 0 5 0 C5 1.98 5 3.96 5 6 C4.67 5.34 4.34 4.68 4 4 C1.98330173 2.86649466 1.98330173 2.86649466 0 2 C0 1.34 0 0.68 0 0 Z " fill="#DDDDDA" transform="translate(110,155)"/>
<path d="M0 0 C0 1.65 0 3.3 0 5 C-1.98 5.33 -3.96 5.66 -6 6 C-5.09643253 3.28929759 -3.37844266 0 0 0 Z " fill="#CAC9C7" transform="translate(224,93)"/>
<path d="M0 0 C0.99 0.33 1.98 0.66 3 1 C1.68 2.65 0.36 4.3 -1 6 C-1.99 5.67 -2.98 5.34 -4 5 C-2.68 3.35 -1.36 1.7 0 0 Z " fill="#CBCAC8" transform="translate(135,162)"/>
<path d="M0 0 C0.99 0 1.98 0 3 0 C3 1.32 3 2.64 3 4 C1.68 4.33 0.36 4.66 -1 5 C-0.67 3.35 -0.34 1.7 0 0 Z " fill="#CCCBC9" transform="translate(206,164)"/>
<path d="M0 0 C0.99 0 1.98 0 3 0 C3 1.65 3 3.3 3 5 C1.68 5.33 0.36 5.66 -1 6 C-0.67 4.02 -0.34 2.04 0 0 Z " fill="#C8C8C6" transform="translate(213,154)"/>
<path d="M0 0 C1.98 0.495 1.98 0.495 4 1 C2.35 2.65 0.7 4.3 -1 6 C-0.67 4.02 -0.34 2.04 0 0 Z " fill="#CFCFCC" transform="translate(262,153)"/>
<path d="M0 0 C0.66 0 1.32 0 2 0 C2 1.32 2 2.64 2 4 C1.34 4 0.68 4 0 4 C0 5.32 0 6.64 0 8 C-0.66 8 -1.32 8 -2 8 C-1.125 1.125 -1.125 1.125 0 0 Z " fill="#D9D9D6" transform="translate(293,118)"/>
</svg>
